/* XPM */
static char *dd53802a2aa842a7b1aafad8b29e4724k2iT1UeTEP4VtLD9[] = {
/* columns rows colors chars-per-pixel */
"64 64 131 2 ",
"   c #15192F",
".  c #171F35",
"X  c #172036",
"o  c #182137",
"O  c #172238",
"+  c #18253B",
"@  c #19293F",
"#  c #1B2E44",
"$  c #1C3347",
"%  c #1D344A",
"&  c #1E384E",
"*  c #1F3C52",
"=  c #203E53",
"-  c #204157",
";  c #21445A",
":  c #23495E",
">  c #244D62",
",  c #255166",
"<  c #27566B",
"1  c #275A6F",
"2  c #28596D",
"3  c #285D71",
"4  c #2A6276",
"5  c #2B667A",
"6  c #2C6A7E",
"7  c #2D6E82",
"8  c #2F7286",
"9  c #2F7589",
"0  c #317A8E",
"q  c #327E92",
"w  c #338296",
"e  c #348599",
"r  c #35899D",
"t  c #378FA2",
"y  c #3790A3",
"u  c #3893A5",
"i  c #3996A9",
"p  c #3A99AC",
"a  c #3B9DB1",
"s  c #3CA3B5",
"d  c #3DA6B8",
"f  c #3FACBD",
"g  c #3FADC0",
"h  c #40AEC1",
"j  c #41B2C5",
"k  c #42B6C9",
"l  c #43BACD",
"z  c #44BBD1",
"x  c #45C2D4",
"c  c #46C6D9",
"v  c #47C8D9",
"b  c #48CADB",
"n  c #4ACFE0",
"m  c #4AD2E4",
"M  c #4BD6EA",
"N  c #4DDBEC",
"B  c #4EDEF4",
"V  c #4FE2F3",
"C  c #42E5FF",
"Z  c #4FE4FC",
"A  c #4CE7FF",
"S  c #4EE7FF",
"D  c #4FE7FF",
"F  c #4EE6FE",
"G  c #50E4F4",
"H  c #50E6F5",
"J  c #50E7F6",
"K  c #50E6F6",
"L  c #50E8F7",
"P  c #50E9F7",
"I  c #50E7FC",
"U  c #50E6FF",
"Y  c #50E7FF",
"T  c #50E7FF",
"R  c #51E9F8",
"E  c #50E9F9",
"W  c #51EAF8",
"Q  c #51EAF9",
"!  c #51EAFB",
"~  c #51ECFA",
"^  c #51ECFB",
"/  c #52ECFB",
"(  c #50E8FF",
")  c #51E8FF",
"_  c #51E9FF",
"`  c #53E8FF",
"'  c #51EAFF",
"]  c #51EBFF",
"[  c #55E8FF",
"{  c #56E8FF",
"}  c #52EEFC",
"|  c #51ECFE",
" . c #51ECFF",
".. c #51EDFF",
"X. c #52ECFF",
"o. c #52EDFF",
"O. c #52EFFE",
"+. c #53EFFE",
"@. c #52EEFF",
"#. c #52EFFF",
"$. c #53EFFF",
"%. c #51EAFE",
"&. c #52F0FE",
"*. c #52F0FF",
"=. c #53F0FF",
"-. c #53F1FF",
";. c #53F2FF",
":. c #53F3FF",
">. c #54F2FF",
",. c #54F3FF",
"<. c #53F4FF",
"1. c #54F4FF",
"2. c #54F5FF",
"3. c #54F6FF",
"4. c #54F7FF",
"5. c #54F4FF",
"6. c #55F8FF",
"7. c #55FAFF",
"8. c #56FBFF",
"9. c #56FEFF",
"0. c #57FFFF",
"q. c #56FAFF",
"w. c #6EEBFF",
"e. c #75EDFF",
"r. c #74ECFF",
"t. c #7DEDFF",
"y. c #7FEEFF",
"u. c #82EDFF",
"i. c #E4FBFF",
"p. c #E8FCFF",
"a. c #ECFCFF",
/* pixels */
"a.u.) [ [ [ [ [ [ { [ [ [ [ [ { ) [ [ [ [ [ [ [ [ [ [ [ [ [ [ [ [ [ [ [ [ [ [ [ [ [ [ [ [ [ [ [ [ [ [ [ [ [ [ [ [ [ [ [ [ ) t.p.",
"y.C D D D D Y Y Y Y D Y Y Y Y Y I I I I I I I I I I I I I I I I I I I I I I I I I I I I I I I I I I I I I I I I I I I I I I C e.",
"D Y D Y Y Y Y Y Y Y Y Y Y Y Y Y I I I I I I I I I I I I I I I I I I I I I I I I I I I I I I I I I I I I I I I I I I I I I I I A ",
"D Y Y Y Y Y Y Y Y Y Y Y Y Y Y Y I I I I I I I I I I I I I I I I I I I I I I I I I I I I I I I I I I I I I I I I I I I I I I I I ",
"D Y Y Y Y Y Y Y Y Y Y Y Y Y Y Y I I I I I I I I I I I I I I I I Y Y Y D I I I I I I I I Y Y Y Y I I I I I I I I I I I I I I I I ",
"Y Y Y Y Y Y Y Y Y Y Y Y Y Y Y Y I I I I I I I I I I I I I I I I Y Y Y D I I I I I I I I Y Y Y D I I I I I I I I I I I I I I I I ",
"Y Y Y Y Y Y Y Y Y Y Y Y Y Y Y Y I I I I I I I I I I I I I D D I Y Y D D D D I I I I I I Y Y D D I I I I I I I I I I I I I I I I ",
"Y Y Y Y Y Y Y Y Y Y Y Y Y Y Y Y I I I  .I  . .I +.I +.I I +.) ) ) ) +.) ) +.I I I I I I I ) I D I  .I I I I I I I I I I I I I I ",
"Y Y Y Y Y Y Y Y Y Y Y Y Y Y Y Y I +.D B B B B B B B B B B B B B V B B V V B Z ) +.+.I +.+. .+.+. .+.) +.I I I I I I I I I I I I ",
"Y Y Y Y Y Y Y Y Y Y Y Y Y Y Y Y I I 4 * * * * * * ; * * - - = = - - = ; % 5 Z ;.0 , 1 3 1 3 3 3 3 4 3 < g ;.I I I I I I I I I I ",
"Y Y Y Y Y Y Y Y Y Y Y Y Y Y Y Y ;.i . # # # + # # # + # # # # # + # # + O l 0.d . + + + + + O + + + . : E  .I I I I I I I I I I ",
"Y Y Y Y Y Y Y Y Y Y Y Y Y Y Y $.n # # # # # # # # # # # # # # # # # # . w 0.N * + # # # # # # # $ + # x <.I I I I I I I I I I I ",
"Y Y Y Y Y Y Y Y Y Y Y Y Y Y ) +.3 + # # # # # # # # # # # # # # # # + : G 2.8 X # # # # # # # # # X e <.I I I I I I I I I I I I ",
"Y Y Y Y Y Y Y Y Y Y Y Y Y Y 2.s . # # # # # # # # # # # # # # # # # + k 0.j + # # # # # # # # # + : V +.I I I I I I I I I I I I ",
"Y Y Y Y Y Y Y Y Y Y Y Y Y +.M & # # # # # # # # # # # # # # # # # . 9 2.V ; + # $ # # # # # # # + l <.I I I I I I I I I I I I I ",
"Y Y Y Y Y Y Y Y Y Y Y D ) 2.6 X # # # # # # # # # # # # # # # # + = B 6.q X # # # # # # # # # O 0 <.I I I I I I I I I I I I I I ",
"Y Y Y Y Y Y Y Y Y Y Y D ;.f + # # # # # # # # # # O O O O + + O . f 0.l + # # # # # # # # $ + - V +.D D Y Y Y Y Y Y Y Y Y Y Y Y ",
"Y Y Y Y Y Y Y Y Y Y Y +.N - + # # # # # # # # # # 5 6 5 5 5 5 3 w ;.P > + # # # # # # # # # + f <.) Y D Y Y Y Y Y Y Y Y Y Y Y Y ",
"Y Y Y Y Y Y Y Y Y Y I <.0 X # # # # # # # # # . q <.;.;.;.;.+.;.+.<.r . # # # # # # # # # X 7 ;.Y Y Y Y Y Y Y Y Y Y Y Y Y Y Y Y ",
"Y Y Y Y Y Y Y Y D ) <.l + # # # # # # $ # # + ; V +.I I Y ) D D ;.c # # # # # # # # # $ + & M +.Y Y Y Y Y Y Y Y Y Y Y Y Y Y Y Y ",
"Y Y Y Y Y Y Y Y Y ) V : + # # # # # # # # # + j <.) I I I I ) ) Q < + # # # # $ # # # # X s <.Y Y Y Y Y Y Y Y Y Y Y Y Y Y Y Y Y ",
"Y Y Y Y Y Y Y Y Y 2.e X # # # # # # # # # O 9 2.I I I I I I I 2.i X # # # # # # # # # O 4 ;.) Y Y Y Y Y Y Y Y Y Y Y Y Y Y Y Y Y ",
"Y Y Y Y Y Y Y Y >.x # # # # # # # # # # + * N +.I I I I I I +.n % + # # # # # # # # # $ m +.Y Y Y Y Y Y Y Y Y Y Y Y Y Y Y Y Y Y ",
"Y Y Y Y Y D ) ) P , O # # # # # # # # # O d >.D I I I I I ) >.4 O # # # # # # # # # . i 2.Y Y Y Y Y Y Y Y Y Y Y Y Y Y Y Y Y Y Y ",
"Y Y Y Y Y Y Y <.t . # # # # # # # # # O 5 ;.) Y Y Y Y Y D <.s O # # # # # # # # $ O < ^ ) ) Y Y Y Y Y Y Y Y Y Y Y Y Y Y Y Y Y Y ",
"Y Y Y Y Y Y +.x + . + + + + + + + + . % m +.Y Y Y Y Y Y +.M % + # # # # # # # # + # c ;.D ) Y Y Y Y Y Y Y Y Y Y Y Y Y Y Y Y Y Y ",
"Y Y Y Y Y Y ) c d f f f f f f f f f f x +.D Y Y Y Y Y ) ;.7 O # # # $ # # # # # X r 2.Y Y Y Y Y Y Y Y Y Y Y Y Y Y Y Y Y Y Y Y Y ",
"Y Y Y Y Y D D +.<.;.;.;.;.;.;.;.;.;.;.+.Y Y Y Y Y Y Y <.f + # # # # # # # # # + > P ) Y Y Y Y Y Y Y Y Y Y Y Y Y Y Y Y Y Y Y Y Y ",
"Y Y Y Y Y Y Y Y D Y Y Y Y Y Y Y Y Y Y Y Y Y Y Y Y Y +.N - + # # # # # # # # # + l 2.Y Y Y Y Y Y Y Y Y Y Y Y Y Y Y Y Y Y Y Y Y Y ",
"Y Y Y Y Y Y Y Y Y Y Y Y Y Y Y Y Y Y Y Y Y Y Y Y D ) 2.0 X # # # # # # # # # X q <.I Y Y Y Y Y Y Y Y Y Y Y Y Y Y Y Y Y Y Y Y Y Y ",
"Y Y Y Y Y Y Y Y Y Y Y Y Y Y Y Y Y Y Y Y Y Y Y Y Y 2.k + # # # # # # # # $ + ; V ) ) Y Y Y Y Y Y Y Y Y Y Y Y Y Y Y Y Y Y Y Y Y Y ",
"Y Y Y Y Y Y Y Y Y Y Y Y Y Y Y Y Y Y Y Y Y Y Y Y ) V : + # # # # # # # # # + g ;.Y Y Y Y Y Y Y Y Y Y Y Y Y Y Y Y Y Y Y Y Y Y Y Y ",
"I I I I I I I I I I I I I I I I Y Y Y Y Y Y Y Y 2.q O # # # # # # # # # . 7 ;.) Y Y Y Y Y Y Y Y Y Y Y Y Y Y Y Y Y Y Y Y Y Y Y Y ",
"I I I I I I I I I I I I I I I I Y Y Y Y Y Y Y >.x # # # # # # $ $ # # # * M +.D Y Y Y Y Y Y Y Y Y Y Y Y Y Y Y Y Y Y Y Y Y Y Y Y ",
"I I I I I I I I I I I I I I I I Y Y Y Y Y Y ) Q > + # # # # # # # # # O d 2.D Y Y Y Y Y Y Y Y Y Y Y Y Y Y Y Y Y Y Y Y Y Y Y Y Y ",
"I I I I I I I I I I I I I I I I Y Y Y Y Y Y 2.y . # # # # # # # # # O 4 ;.Y Y Y Y Y Y Y Y Y Y Y Y Y Y Y Y Y Y Y Y Y Y Y Y Y Y Y ",
"I I I I I I I I I I I I I I I I Y Y Y Y Y >.v # # # # # # # # # $ + % m +.Y Y Y Y Y Y D ;.<.;.;.;.;.<.;.<.;.<.<.) D Y Y Y Y Y Y ",
"I I I I I I I I I I I I I I I I Y Y Y Y ) $.3 O # # # # # # # # # X p 2.Y Y Y Y Y Y Y +.l p a a a a a a a a a i z +.Y Y Y Y Y Y ",
"I I I I I I I I I I I I I I I I Y Y Y Y 2.p O # # # # # # # # $ O 2 Q ) Y Y Y Y Y Y +.m $ . O O O O O O O X . + x +.Y Y Y Y Y Y ",
"I I I I I I I I I I I I I I I I Y Y Y $.n % # # # # # # # # # + # v +.Y Y Y Y Y D D ;.5 . # # # # # # # # # X y 2.Y Y Y Y Y Y Y ",
"I I I I I I I I I I I I I I I I Y Y ) ;.5 X # # # # $ # # # # O t 2.) Y I I I I I <.d O # # # # # $ # # # X < Q ) Y Y Y Y Y Y Y ",
"I I I I I I I I I I I I I I I I Y Y >.d O # # # # # # # # # + > J ) Y Y I I I I  .N * + # # # # # # # # # # x ;.Y Y Y Y Y Y Y Y ",
"I I I I I I I I I I I I I I I I Y +.N * + # # # # # # # # # # l >.Y Y Y I I I I <.8 O # # # # # # # # # . w 2.) Y Y Y Y Y Y Y Y ",
"I I I I I I I I I I I I I I I I ) >.8 . $ # # # # # # # # . q ;.Y Y Y Y I I I ;.j + # # # $ # # # # $ + : V ) Y Y Y Y Y Y Y Y Y ",
"I I I I I I I I I I I I I I ) ) >.j + # # # # # # # # # + ; V +.) I I I I I  .V - + # # # # # # # # # + l ;.Y Y Y Y Y Y Y Y Y Y ",
"I I I I I I I I I I I I I I I ) V : + # # # # # # # # # + j ;.+. .+.) +.+.;.<.q X $ # # # # # # # # . 0 >.D Y Y Y Y Y Y Y Y Y Y ",
"I I I I I I I I I I I I I I Y 2.0 X # # # # # # # # # X 8 2.+.q < 3 1 3 3 3 1 # # # # # # # # # # + - N +.D Y Y Y Y Y Y Y Y Y Y ",
"I I I I I I I I I I I I I I 2.l + # # # # # # # # $ + * N 6.d X O + + + + O + # # # # # # # # # # + j 2.Y Y Y Y Y Y Y Y Y Y Y Y ",
"I I I I I I I I I I I I I +.V , + # # # # # # # # # + d 6.N = + # # # # # # # # # # # # # # # $ X 6 <.) Y Y Y Y Y Y Y Y Y Y Y Y ",
"I I I I I I I I I I I I I <.r . # # # # # # # # # O 5 ;.2.9 X $ # # # # # # # # # # # # # # # + & M ;.) Y Y Y Y Y Y Y Y Y Y Y Y ",
"I I I I I I I I I I I I ;.c # + # # # # # # # # + & m 6.k + # # $ # # # # # # # # # # $ # # # O s 2.D D Y Y Y Y Y Y Y Y Y Y Y Y ",
"I I I I I I I I I I I ) Q < O $ # # # # # # # # O p 6.V ; + # # # # # # # # # $ # # # # # # X 4 ;.) Y Y Y Y Y Y Y Y Y Y Y Y Y Y ",
"I I I I I I I I Y Y D <.i X # # # # # # # # # O 3 ;.2.w X $ # # # # # # $ # # # # $ # # $ + % m +.D Y Y Y Y Y Y Y Y Y Y Y Y Y Y ",
"I I I I I I I I Y D +.b # + + # + # # + # + # # b 6.k O O + + + + @ @ + + + + + + + + + + . p 2.Y D Y Y Y Y Y Y Y Y Y Y Y Y Y Y ",
"I I I I I I I I Y ) ) 6 # * & & & & & & & & # u <.Q 9 ; , > > , , > > > > > > : : : > > ; 6 +.) Y Y Y Y Y Y Y Y Y Y Y Y Y Y Y Y ",
"I I I I I I I I D I Z m M M M M M M M M M M M I ) I Z Q I Q ) ) Q I I I I Y Q I I I I I Z ) I I Y Y Y Y Y Y Y Y Y Y Y Y Y Y Y Y ",
"Y Y Y Y Y Y Y Y Y Y Y +.) +.I +. . . . . . .+.I I I  .I I  .I I ) ) ) ) ) ) ) ) ) ) ) ) ) ) I I Y Y Y Y Y Y Y Y Y Y Y Y Y Y Y Y ",
"Y Y Y Y Y Y Y Y Y Y Y Y I I D D I I I I I I I I I I I I I I I I Y Y Y Y ) ) ) ) Y Y Y Y I I I I Y Y Y Y Y Y Y Y Y Y Y Y Y Y Y Y ",
"Y Y Y Y Y Y Y Y Y Y Y Y Y Y D D I I I I I I I I I I I I I I I I Y Y Y Y I I I I Y Y Y Y I I I I Y Y Y Y Y Y Y Y Y Y Y Y Y Y Y Y ",
"Y Y Y Y Y Y Y Y Y Y Y Y Y Y Y Y I I I I I I I I I I I I I I I I Y Y Y Y I I I I Y Y Y Y I I I I Y Y Y Y Y Y Y Y Y Y Y Y Y Y Y Y ",
"Y Y Y Y Y Y Y Y Y Y Y Y Y Y Y Y I I I I I I I I I I I I I I I I I I I I I I I I Y Y Y Y Y Y Y Y Y Y Y Y Y Y Y Y Y Y Y Y Y Y Y Y ",
"D D Y Y Y Y Y Y Y Y Y Y Y Y Y Y I I I I I I I I I I I I I I I I I I I I I I I I Y Y Y Y Y Y Y Y Y Y Y Y Y Y Y Y Y Y Y Y Y Y D D ",
"e.C Y Y Y Y Y Y Y Y Y Y Y Y Y Y I I I I I I I I I I I I I I I I I I I I I I I I Y Y Y Y Y Y Y Y Y Y Y Y Y Y Y Y Y Y Y Y D D C w.",
"i.r.D Y Y Y Y Y Y Y Y Y Y Y Y Y I I I I I I I I I I I I I I I I I I I I I I I I Y Y Y Y Y Y Y Y Y Y Y Y Y Y Y Y Y Y Y Y D D w.i."
};
