/* XPM */
static char *_ae4eda35ea842bad2cacd40f0735859o4ZosggJRTDH3za5[] = {
/* columns rows colors chars-per-pixel */
"16 16 132 2 ",
"   c #110D25",
".  c #120E26",
"X  c #13132A",
"o  c #14152C",
"O  c #14162D",
"+  c #15172E",
"@  c #15182E",
"#  c #15182F",
"$  c #151A31",
"%  c #161B32",
"&  c #171F35",
"*  c #171F36",
"=  c #171F37",
"-  c #172036",
";  c #172037",
":  c #172137",
">  c #182137",
",  c #172138",
"<  c #182138",
"1  c #182238",
"2  c #19283D",
"3  c #1A293E",
"4  c #1A2B41",
"5  c #1A2C41",
"6  c #1B2E44",
"7  c #1C3147",
"8  c #22465B",
"9  c #234B5F",
"0  c #244F62",
"q  c #265367",
"w  c #265467",
"e  c #265468",
"r  c #265568",
"t  c #26556A",
"y  c #27586C",
"u  c #285B6F",
"i  c #285D71",
"p  c #295F72",
"a  c #295F74",
"s  c #296074",
"d  c #296075",
"f  c #2A6074",
"g  c #296274",
"h  c #296276",
"j  c #2A6276",
"k  c #2B6477",
"l  c #2B6478",
"z  c #2D6C80",
"x  c #2F7283",
"c  c #2E7185",
"v  c #2E7285",
"b  c #2F7588",
"n  c #307789",
"m  c #317A8D",
"M  c #317B8D",
"N  c #317C8E",
"B  c #317C8F",
"V  c #327E90",
"C  c #327F92",
"Z  c #338295",
"A  c #348496",
"S  c #348596",
"D  c #348598",
"F  c #348698",
"G  c #358799",
"H  c #35889A",
"J  c #358A9D",
"K  c #3792A4",
"L  c #3893A4",
"P  c #3995A8",
"I  c #3996A9",
"U  c #3A9CAC",
"Y  c #3CA0AE",
"T  c #3DA5B2",
"R  c #3DA5B5",
"E  c #40AFBF",
"W  c #42B6C7",
"Q  c #43B9CB",
"!  c #46C3D3",
"~  c #45C3D4",
"^  c #45C4D5",
"/  c #46C4D4",
"(  c #49CEDD",
")  c #4DDBED",
"_  c #4DDDF1",
"`  c #4DDEF1",
"'  c #4EE0F4",
"]  c #4EE1F4",
"[  c #4FE2F5",
"{  c #4FE6FE",
"}  c #4EE6FF",
"|  c #4EE7FF",
" . c #4FE7FF",
".. c #50E6F5",
"X. c #50E6FD",
"o. c #50E7FE",
"O. c #50E7FF",
"+. c #51E7FF",
"@. c #51EBF9",
"#. c #51EBFD",
"$. c #50E8FF",
"%. c #51E8FF",
"&. c #51E9FF",
"*. c #50EAFF",
"=. c #51EAFF",
"-. c #51EBFF",
";. c #52EEFC",
":. c #52EFFD",
">. c #52EDFF",
",. c #51EEFF",
"<. c #52EEFF",
"1. c #52EFFF",
"2. c #53EFFF",
"3. c #5AE9FF",
"4. c #5BE9FF",
"5. c #5CE9FF",
"6. c #52F1FE",
"7. c #53F1FE",
"8. c #53F0FF",
"9. c #52F1FF",
"0. c #53F1FF",
"q. c #53F2FE",
"w. c #53F2FF",
"e. c #53F3FF",
"r. c #54F3FF",
"t. c #53F4FF",
"y. c #54F4FF",
"u. c #54F5FF",
"i. c #54F6FF",
"p. c #55FAFF",
"a. c #56FAFF",
"s. c #57FFFF",
/* pixels */
"5.| %.O.%.%.%.%.%.%.%.%.%.%.O.4.",
"| O.O.O.;.;.;.;.;.%.6.6.;.| O.| ",
"O.O.O.r.I u d p p E v s b ..%.O.",
"O.O.r.! 2 * @ . d v $ + L 6.O.O.",
"O.%.@.q 1 6 J T U 3 - s ;.%.O.O.",
"O.6.A X + N s.;.8 - 7 ( ;.O.O.O.",
"%.] Z n C ' p.M - , K y.O.O.O.O.",
"$.$.6.y.6.y.Q 2 , r ;.%.O.O.O.O.",
"O.O.O.O.;.[ 9 - 5 ~ 6.r.r.r.O.O.",
"O.O.O.O.t.F * * D p._ C v N ] %.",
"O.O.| r.^ 5 , q y.s.N @ X S 6.O.",
"O.O.%.;.r , 6 R Y H 6 1 w ;.%.O.",
"O.%.6.H O % M d . + * 4 ! 6.%.| ",
"O.%.) d t z W d d l u I 6.%.O.O.",
"| O.%.;.;.;.;.;.r.;.6.;.O.O.O.| ",
"4.| O.| %.O.| $.%.%.%.O.O.O.| 4."
};
