/* XPM */
static char *_557a1e02b034591fde45e22e5331fc0XTMLYsGogEWP1qN6[] = {
/* columns rows colors chars-per-pixel */
"32 32 230 2 ",
"   c #13132A",
".  c #13132B",
"X  c #14162D",
"o  c #15182F",
"O  c #161B32",
"+  c #161C31",
"@  c #171E35",
"#  c #171F35",
"$  c #171F36",
"%  c #172036",
"&  c #172037",
"*  c #172137",
"=  c #182137",
"-  c #172138",
";  c #172238",
":  c #172239",
">  c #182238",
",  c #182239",
"<  c #182339",
"1  c #18223A",
"2  c #18233A",
"3  c #182439",
"4  c #18243A",
"5  c #18243B",
"6  c #18253B",
"7  c #18253C",
"8  c #18263C",
"9  c #19263C",
"0  c #19263D",
"q  c #18273D",
"w  c #19273D",
"e  c #19273E",
"r  c #1A273E",
"t  c #19283F",
"y  c #1A283E",
"u  c #1A283F",
"i  c #1A293F",
"p  c #1A2940",
"a  c #1A2A40",
"s  c #1A2B41",
"d  c #1A2B42",
"f  c #1A2C41",
"g  c #1A2C42",
"h  c #1B2C42",
"j  c #1B2C43",
"k  c #1A2D43",
"l  c #1B2D43",
"z  c #1B2E43",
"x  c #1B2E44",
"c  c #1B2E45",
"v  c #1B2F45",
"b  c #1C3046",
"n  c #1C3248",
"m  c #1C3348",
"M  c #1E384E",
"N  c #1E394E",
"B  c #1E394F",
"V  c #1E3A4F",
"C  c #1F3C51",
"Z  c #203F54",
"A  c #204055",
"S  c #204155",
"D  c #214155",
"F  c #204056",
"G  c #214458",
"H  c #22445A",
"J  c #22465B",
"K  c #22475B",
"L  c #234A5F",
"P  c #244C60",
"I  c #244E63",
"U  c #255164",
"Y  c #255065",
"T  c #255165",
"R  c #265367",
"E  c #265468",
"W  c #27576B",
"Q  c #27586C",
"!  c #275A6F",
"~  c #285E71",
"^  c #2A6275",
"/  c #2A6376",
"(  c #2D6B7E",
")  c #2D6C7F",
"_  c #2D6D80",
"`  c #2D6E81",
"'  c #30778A",
"]  c #30798B",
"[  c #30798C",
"{  c #327E90",
"}  c #327E93",
"|  c #328093",
" . c #338297",
".. c #348698",
"X. c #35889C",
"o. c #35889D",
"O. c #368B9E",
"+. c #358BA1",
"@. c #368BA1",
"#. c #378EA0",
"$. c #378FA1",
"%. c #368EA4",
"&. c #378FA5",
"*. c #3793A4",
"=. c #3892A4",
"-. c #3995A5",
";. c #3997A6",
":. c #3894A8",
">. c #3895A9",
",. c #3996A8",
"<. c #3997A9",
"1. c #3996AB",
"2. c #3997AC",
"3. c #3998AC",
"4. c #3A99AD",
"5. c #3A9BAC",
"6. c #3999AE",
"7. c #3A9AB0",
"8. c #3A9DB1",
"9. c #3B9DB1",
"0. c #3B9FB0",
"q. c #3CA1B2",
"w. c #3CA1B3",
"e. c #3CA2B3",
"r. c #3CA0B4",
"t. c #3CA1B4",
"y. c #3CA0B5",
"u. c #3DA3B4",
"i. c #3CA1B6",
"p. c #3DA3B7",
"a. c #3FAABE",
"s. c #3FACBD",
"d. c #3FACBE",
"f. c #3FAEC0",
"g. c #41B3C1",
"h. c #42B5C6",
"j. c #42B6C7",
"k. c #43B9CA",
"l. c #43B9CB",
"z. c #44BDCE",
"x. c #44BECF",
"c. c #44BFD0",
"v. c #45C1CE",
"b. c #45C0D1",
"n. c #44C0D2",
"m. c #45C1D2",
"M. c #45C3D7",
"N. c #45C4D5",
"B. c #46C4D4",
"V. c #47C5D5",
"C. c #47C6D4",
"Z. c #46C6D6",
"A. c #47C7D7",
"S. c #47C8D8",
"D. c #46C8D9",
"F. c #49CDDD",
"G. c #48CCDE",
"H. c #4AD0E0",
"J. c #4AD0E1",
"K. c #4AD2E0",
"L. c #4AD4E0",
"P. c #4BD5E2",
"I. c #4BD7E7",
"U. c #4BD8E8",
"Y. c #4CD8E9",
"T. c #4DDCEB",
"R. c #4CD9EE",
"E. c #4DDEEE",
"W. c #4EDEEF",
"Q. c #4EDFEF",
"!. c #4DDAF0",
"~. c #4DDCF2",
"^. c #4FE2ED",
"/. c #4AE6FF",
"(. c #4BE6FF",
"). c #4AE7FF",
"_. c #4CE7FF",
"`. c #4DE7FF",
"'. c #4FE7FF",
"]. c #50E6F5",
"[. c #50E8F5",
"{. c #50E8F6",
"}. c #50E8F7",
"|. c #52ECF7",
" X c #50E5FA",
".X c #50E6FF",
"XX c #50E7FF",
"oX c #51E9F8",
"OX c #51EAF8",
"+X c #51EBF9",
"@X c #50E8FA",
"#X c #50E8FB",
"$X c #50E9FB",
"%X c #51ECFA",
"&X c #51ECFB",
"*X c #52ECFB",
"=X c #51E9FE",
"-X c #50E8FF",
";X c #51E8FF",
":X c #50E9FF",
">X c #51E9FF",
",X c #52E8FF",
"<X c #53E8FF",
"1X c #51EAFF",
"2X c #51EBFF",
"3X c #52EFFC",
"4X c #51ECFF",
"5X c #52EDFF",
"6X c #53EFFE",
"7X c #52EEFF",
"8X c #52EFFF",
"9X c #53EFFF",
"0X c #53F0FE",
"qX c #53F0FF",
"wX c #53F1FF",
"eX c #53F2FF",
"rX c #53F3FF",
"tX c #54F2FF",
"yX c #54F3FF",
"uX c #53F4FF",
"iX c #54F4FF",
"pX c #54F5FF",
"aX c #54F6FF",
"sX c #54F7FF",
"dX c #55F7FF",
"fX c #55F8FF",
"gX c #7FEEFF",
"hX c #82EEFF",
"jX c #85EEFF",
"kX c #89EFFF",
/* pixels */
"kX_.;X<X<X;X<X<X;X<X<X<X<X<X<X<X<X;X<X<X<X<X<X;X<X<X;X<X<X;X'.jX",
"_._.;X.X.X;X'..X'..X;X_.;X.X.X_..X;X'..X.X_..X;X'..X'.'.;X.X_.).",
".X.X;X_..X;X;X_..X;X_.;X.X.X.X.X;X.X;X_..X.X.X_.;X'.;X'._.;X.X;X",
".X;X.X;X;X.X;X.X.XyXaXuXaXyXaXyXyXyXyX.XyXyXaXuXwXuX'.;X.X.X;X.X",
";X.X_.;X.X.X;X;X;X6.@.&.&.&.&.*.&.@.6.*Xa.8.r.r.q.9.R.;X;X.X;X.X",
".X;X.X.X;X_..XaXq.O % - - - - - =   ;.g.@ % - 6 X R {.;X.X;X_.;X",
";X.X.X;X.X_.9XI.B p x x x x x x - ~ ^.S q x x p b G.yX.X.X;X.X;X",
"_.;X;X.X;X;XyX( - x x x p 9 6 - j L.[ 2 x x x @ -.aX.X_.;X.X;X.X",
".X;X.X;X_.yXs.2 h v h p C U U J 0.v.6 f b j 6 U *X;X.X;X.X;X.X;X",
";X.X;X.X9XW.Z 9 h v i b Z.wX@X%X[.K q j j p j Z.wX;X_.;X;X.X.X_.",
";X.X_.;XuX] % j x j % =.fX'.;XaX| % j b b % ..aX_..X;X.X;X.X;X.X",
"_.;X.XyXh.6 i j j 2 U {.;X;XwXz.t f b j 6 L {.;X.X;X.X;X_.;X.X;X",
".X;X9XW.J 2 j j i x c.wX_.;X*XP 6 x x d 9 k.yX;X_.;X.X;X.X;X.X;X",
";X.X;X~.b.Z.Z.Z.Z.G.9X;X;XfXO.% x x x % ] yX.X.X.X.X;X.X;X.X;X.X",
".X;X_.;X9XyX9X9X9X6X.X;XyXS.x p x x q S W.9X;X.X;X.X.X;X;X.X_..X",
";X.X.X;X_..X.X.X_..X.X;X*XW - x x x - f.aX.X_.;X.X;X_.;X.X;X.X;X",
".X;X.X_..X;X.X;X'.'.'.uX;.% j b x % _ wX'.;X'._..X;X.X.X;X;X_..X",
";X.X;X;X;X.X;X.X;X'.wXK.m q b b i B U.9X'.'.wXwX6XyX9XyX;X'..X;X",
".X;X;X.X_..X;X_.'.;XwX/ ; b j j - w.uX'.'.&XD.z.c.c.c.k.!..X;X.X",
".X_..X;X.X;X.X;X.XaXe.; j j b % ^ wX;X'.wXn.j t p p 2 S W.9X.X;X",
";X.X;X.X;X_..X.X9XU.B i j b i m H.9X;X;X%XU % j j j 6 h.wX;X'.;X",
".X;X_.;X.X;X;X;XwX) % b b j % :.fX;X;XfXO.% b j j % ' wX'.'.;X'.",
".X;X.X;X.X.X'.uXs.6 j j j 6 Q wX@X'.{.C.b i j b i Z W.9X;X.X_..X",
";X.X;X.X.X_.9X^.S t j b j j H.5.S L L V p b b j 6 s.uX;X.X;X.X;X",
"_..X.X;X.X;XuX] % x x x @ *.P.p 6 i 9 i b x x % ( uX;X;X.X.X;X.X",
".X;X;X.X;XwXk.9 j x x 6 I *X! - j x x b j j i B I.9X.X;X;X_..X;X",
";X.X;X;X;XT.C o 2 - + 6 C.-.  = % 6 % - 6 % + w.uX;X'..X.X;X;X.X",
".X;X_..X9XM.} O...O. .p.9Xr.>.6.3.3.3.3.>.:.r.;X'.'.;X_.;X.X_.;X",
";X.X;X.X_.;XaXaXaXwXaXwX;XwXyXaXaXyXyXyXwXaXyX;X;X.X.X;X.X;X_..X",
".X;X.X_..X.X.X.X.X;X.X;X_..X.X.X.X.X;X.X;X.X.X.X.X_.;X.X;X.X.X;X",
")..X.X;X.X;X;X.X;X.X.X;X.X;X.X;X;X.X_..X.X;X.X_.;X.X.X;X;X.X;X_.",
"hX).;X.X;X.X_.;X.X_.;X.X;X.X_.;X.X;X.X;X;X.X;X;X.X;X;X.X_..X).gX"
};
